<svg width="48" height="48" viewBox="0 0 48 48" fill="none" xmlns="http://www.w3.org/2000/svg">
<mask id="mask0_84_3524" style="mask-type:luminance" maskUnits="userSpaceOnUse" x="0" y="0" width="48" height="48">
<path d="M0 3.8147e-06H48V48H0V3.8147e-06Z" fill="white"/>
</mask>
<g mask="url(#mask0_84_3524)">
<path fill-rule="evenodd" clip-rule="evenodd" d="M39.797 40.1621C39.797 40.5504 40.1118 40.8652 40.5001 40.8652H43.207C45.8563 40.8652 48 38.7111 48 36.0587V16.4756C48 13.8232 45.8563 11.669 43.207 11.669H32.429C32.0407 11.669 31.7259 11.9838 31.7259 12.3722C31.7259 12.7605 32.0407 13.0753 32.429 13.0753H43.207C45.0753 13.0753 46.5938 14.5954 46.5938 16.4756V36.0587C46.5938 37.9388 45.0753 39.459 43.207 39.459H40.5001C40.1118 39.459 39.797 39.7738 39.797 40.1621Z" fill="url(#paint0_linear_84_3524)"/>
<path fill-rule="evenodd" clip-rule="evenodd" d="M6.56255 47.9381C6.81494 48.0516 7.11043 48.0065 7.31748 47.8229L15.1638 40.8649H36.3454C36.7337 40.8649 37.0485 40.5501 37.0485 40.1617C37.0485 39.7734 36.7337 39.4586 36.3454 39.4586H14.897C14.725 39.4586 14.5591 39.5216 14.4305 39.6357L7.55409 45.7336V40.1617C7.55409 39.7734 7.23929 39.4586 6.85097 39.4586H4.79306C2.92484 39.4586 1.40625 37.9385 1.40625 36.0583V16.4753C1.40625 14.5952 2.92486 13.0749 4.79306 13.0749H15.3665C15.7548 13.0749 16.0696 12.7601 16.0696 12.3718C16.0696 11.9835 15.7548 11.6687 15.3665 11.6687H4.79306C2.14383 11.6687 0 13.8229 0 16.4753V36.0583C0 38.7108 2.14385 40.8649 4.79306 40.8649H6.14784V47.2969C6.14784 47.5736 6.31017 47.8246 6.56255 47.9381Z" fill="url(#paint1_linear_84_3524)"/>
<path fill-rule="evenodd" clip-rule="evenodd" d="M7.53107 22.0127C7.53107 22.401 7.84587 22.7158 8.23419 22.7158H39.7659C40.1542 22.7158 40.469 22.401 40.469 22.0127C40.469 21.6244 40.1542 21.3096 39.7659 21.3096H8.23419C7.84587 21.3096 7.53107 21.6244 7.53107 22.0127Z" fill="url(#paint2_linear_84_3524)"/>
<path fill-rule="evenodd" clip-rule="evenodd" d="M7.53107 26.7656C7.53107 27.154 7.84587 27.4688 8.23419 27.4688H39.7659C40.1542 27.4688 40.469 27.154 40.469 26.7656C40.469 26.3773 40.1542 26.0625 39.7659 26.0625H8.23419C7.84587 26.0625 7.53107 26.3773 7.53107 26.7656Z" fill="url(#paint3_linear_84_3524)"/>
<path fill-rule="evenodd" clip-rule="evenodd" d="M7.53107 31.5176C7.53107 31.9059 7.84587 32.2207 8.23419 32.2207H27.1557C27.544 32.2207 27.8588 31.9059 27.8588 31.5176C27.8588 31.1293 27.544 30.8145 27.1557 30.8145H8.23419C7.84587 30.8145 7.53107 31.1293 7.53107 31.5176Z" fill="url(#paint4_linear_84_3524)"/>
<path fill-rule="evenodd" clip-rule="evenodd" d="M14 9.57985C14 14.8709 18.2893 19.1602 23.5804 19.1602C28.8716 19.1602 33.1608 14.8709 33.1608 9.57985C33.1608 4.28877 28.8716 -0.00056076 23.5804 -0.00056076C21.8819 -0.00056076 20.2847 0.442078 18.8999 1.21883C18.5612 1.40881 18.4407 1.83737 18.6307 2.17605C18.8206 2.51473 19.2492 2.63528 19.5879 2.4453C20.768 1.78337 22.1291 1.40569 23.5804 1.40569C28.0949 1.40569 31.7546 5.06542 31.7546 9.57985C31.7546 14.0943 28.0949 17.7539 23.5804 17.7539C19.066 17.7539 15.4062 14.0943 15.4062 9.57985C15.4062 7.74128 16.0125 6.04633 17.0361 4.68117C17.2691 4.37049 17.2061 3.92977 16.8954 3.69681C16.5847 3.46384 16.144 3.52684 15.9111 3.83752C14.7112 5.43768 14 7.42672 14 9.57985Z" fill="url(#paint5_linear_84_3524)"/>
<path fill-rule="evenodd" clip-rule="evenodd" d="M18.436 15.5657C19.6192 13.7446 21.6692 12.5419 23.9998 12.5419C26.2781 12.5419 28.302 13.7375 29.5409 15.5871C28.0834 16.9329 26.1386 17.7549 24 17.7549C21.8501 17.7549 19.8959 16.9242 18.436 15.5657ZM17.0406 16.1613C18.7857 18.0063 21.2576 19.1611 24 19.1611C26.7338 19.1611 29.1987 18.0134 30.9429 16.1787C31.1565 15.954 31.1978 15.6159 31.0444 15.3464C29.6212 12.8461 27.0151 11.1357 23.9998 11.1357C20.9466 11.1357 18.2936 12.8389 16.9336 15.3425C16.7883 15.6098 16.8315 15.9403 17.0406 16.1613Z" fill="url(#paint6_linear_84_3524)"/>
<path fill-rule="evenodd" clip-rule="evenodd" d="M19.8708 8.4364C19.8708 10.7168 21.7193 12.5654 23.9998 12.5654C26.2802 12.5654 28.1289 10.7168 28.1289 8.4364C28.1289 6.1559 26.2802 4.30737 23.9998 4.30737C21.7193 4.30737 19.8708 6.15592 19.8708 8.4364ZM23.9998 11.1592C22.496 11.1592 21.277 9.94015 21.277 8.4364C21.277 6.93257 22.496 5.71362 23.9998 5.71362C25.5036 5.71362 26.7226 6.93258 26.7226 8.4364C26.7226 9.94014 25.5036 11.1592 23.9998 11.1592Z" fill="url(#paint7_linear_84_3524)"/>
</g>
<defs>
<linearGradient id="paint0_linear_84_3524" x1="31.7259" y1="26.2671" x2="48" y2="26.2671" gradientUnits="userSpaceOnUse">
<stop stop-color="#0CBAF1"/>
<stop offset="1" stop-color="#E95CE9"/>
</linearGradient>
<linearGradient id="paint1_linear_84_3524" x1="0" y1="29.8343" x2="37.0485" y2="29.8343" gradientUnits="userSpaceOnUse">
<stop stop-color="#0CBAF1"/>
<stop offset="1" stop-color="#E95CE9"/>
</linearGradient>
<linearGradient id="paint2_linear_84_3524" x1="7.53107" y1="22.0127" x2="40.469" y2="22.0127" gradientUnits="userSpaceOnUse">
<stop stop-color="#0CBAF1"/>
<stop offset="1" stop-color="#E95CE9"/>
</linearGradient>
<linearGradient id="paint3_linear_84_3524" x1="7.53107" y1="26.7656" x2="40.469" y2="26.7656" gradientUnits="userSpaceOnUse">
<stop stop-color="#0CBAF1"/>
<stop offset="1" stop-color="#E95CE9"/>
</linearGradient>
<linearGradient id="paint4_linear_84_3524" x1="7.53107" y1="31.5176" x2="27.8588" y2="31.5176" gradientUnits="userSpaceOnUse">
<stop stop-color="#0CBAF1"/>
<stop offset="1" stop-color="#E95CE9"/>
</linearGradient>
<linearGradient id="paint5_linear_84_3524" x1="14" y1="9.5798" x2="33.1608" y2="9.5798" gradientUnits="userSpaceOnUse">
<stop stop-color="#0CBAF1"/>
<stop offset="1" stop-color="#E95CE9"/>
</linearGradient>
<linearGradient id="paint6_linear_84_3524" x1="16.8483" y1="15.1484" x2="31.1365" y2="15.1484" gradientUnits="userSpaceOnUse">
<stop stop-color="#0CBAF1"/>
<stop offset="1" stop-color="#E95CE9"/>
</linearGradient>
<linearGradient id="paint7_linear_84_3524" x1="19.8708" y1="8.4364" x2="28.1289" y2="8.4364" gradientUnits="userSpaceOnUse">
<stop stop-color="#0CBAF1"/>
<stop offset="1" stop-color="#E95CE9"/>
</linearGradient>
</defs>
</svg>
